<svg width="25" height="16" viewBox="0 0 25 16" fill="none" xmlns="http://www.w3.org/2000/svg">
<path d="M12.5 2L10.588 5.87533C10.4901 6.07367 10.3238 6.25392 10.1023 6.40156C9.88088 6.5492 9.61051 6.6601 9.313 6.72533L3.5 8L9.313 9.27467C9.61051 9.3399 9.88088 9.4508 10.1023 9.59844C10.3238 9.74608 10.4901 9.92633 10.588 10.1247L12.5 14L14.412 10.1247C14.5099 9.92633 14.6762 9.74608 14.8977 9.59844C15.1191 9.4508 15.3895 9.3399 15.687 9.27467L21.5 8L15.687 6.72533C15.3895 6.6601 15.1191 6.5492 14.8977 6.40156C14.6762 6.25392 14.5099 6.07367 14.412 5.87533L12.5 2Z" stroke="black" stroke-width="2" stroke-linecap="round" stroke-linejoin="round"/>
<path d="M5.5 2V4.66667" stroke="black" stroke-width="2" stroke-linecap="round" stroke-linejoin="round"/>
<path d="M19.5 11.3334V14" stroke="black" stroke-width="2" stroke-linecap="round" stroke-linejoin="round"/>
<path d="M3.5 3.33337H7.5" stroke="black" stroke-width="2" stroke-linecap="round" stroke-linejoin="round"/>
<path d="M17.5 12.6666H21.5" stroke="black" stroke-width="2" stroke-linecap="round" stroke-linejoin="round"/>
</svg>
