<svg width="54" height="20" viewBox="0 0 54 20" fill="none" xmlns="http://www.w3.org/2000/svg">
<path d="M33.1289 16H31.3242L27.7969 9.86523V16H26.1152V7.36328H28.0078L31.4473 13.3926V7.36328H33.1289V16ZM40.8281 12.2266H36.6328V14.4473H41.4141V16H34.8691V7.36328H41.2031V8.89258H36.6328V10.7266H40.8281V12.2266ZM51.2227 7.36328H53.0566L50.625 16H48.9023L47.8594 10.9492L47.5547 9.2793L47.25 10.9492L46.207 16H44.5312L42.082 7.36328H43.998L45.1406 12.3086L45.3867 13.6855L45.6387 12.3379L46.6113 7.36328H48.5156L49.541 12.3086L49.8047 13.6855L50.0684 12.3613L51.2227 7.36328Z" fill="#A855F7"/>
<g opacity="0.0364362">
<path d="M0.279297 4.38867C0.279297 2.17953 2.07016 0.388672 4.2793 0.388672C6.48844 0.388672 8.2793 2.17953 8.2793 4.38867C8.2793 6.59781 6.48844 8.38867 4.2793 8.38867C2.07016 8.38867 0.279297 6.59781 0.279297 4.38867Z" fill="#C084FC"/>
</g>
<path d="M7.89062 12C7.89062 9.79086 9.68149 8 11.8906 8C14.0998 8 15.8906 9.79086 15.8906 12C15.8906 14.2091 14.0998 16 11.8906 16C9.68149 16 7.89062 14.2091 7.89062 12Z" fill="#A855F7"/>
</svg>
