<svg width="709" height="122" viewBox="0 0 709 122" fill="none" xmlns="http://www.w3.org/2000/svg">
<path d="M1 8C1 3.85786 4.35786 0.5 8.5 0.5H700.5C704.642 0.5 708 3.85786 708 8V114C708 118.142 704.642 121.5 700.5 121.5H8.5C4.35786 121.5 1 118.142 1 114V8Z" fill="white"/>
<path d="M1 8C1 3.85786 4.35786 0.5 8.5 0.5H700.5C704.642 0.5 708 3.85786 708 8V114C708 118.142 704.642 121.5 700.5 121.5H8.5C4.35786 121.5 1 118.142 1 114V8Z" stroke="#D1D5DB"/>
<path d="M90.3438 63C90.3438 59.6863 93.03 57 96.3438 57H185.804C189.117 57 191.804 59.6863 191.804 63V91C191.804 94.3137 189.117 97 185.804 97H96.3438C93.03 97 90.3438 94.3137 90.3438 91V63Z" fill="#E5E7EB" fill-opacity="0.8"/>
<path d="M113.504 91.9727L112.82 92.7998L111.269 91.6172C110.895 91.8223 110.489 91.9863 110.052 92.1094C109.619 92.2324 109.145 92.2939 108.63 92.2939C107.071 92.2939 105.85 91.7835 104.966 90.7627C104.187 89.7692 103.797 88.5251 103.797 87.0303C103.797 85.6722 104.134 84.5101 104.809 83.5439C105.674 82.3044 106.955 81.6846 108.65 81.6846C110.423 81.6846 111.736 82.2542 112.588 83.3936C113.253 84.2822 113.586 85.4193 113.586 86.8047C113.586 87.4518 113.506 88.0739 113.347 88.6709C113.105 89.5824 112.697 90.3252 112.123 90.8994L113.504 91.9727ZM108.794 91.0771C109.076 91.0771 109.341 91.0589 109.587 91.0225C109.833 90.9814 110.047 90.904 110.229 90.79L109.129 89.9287L109.812 89.0879L111.125 90.1064C111.54 89.6325 111.82 89.1016 111.966 88.5137C112.116 87.9258 112.191 87.363 112.191 86.8252C112.191 85.6449 111.882 84.6947 111.262 83.9746C110.646 83.2546 109.803 82.8945 108.732 82.8945C107.648 82.8945 106.789 83.2409 106.155 83.9336C105.522 84.6217 105.205 85.6836 105.205 87.1191C105.205 88.3268 105.508 89.2884 106.114 90.0039C106.725 90.7194 107.618 91.0771 108.794 91.0771ZM116.279 84.6787V89.5391C116.279 89.9128 116.339 90.2181 116.457 90.4551C116.676 90.8926 117.084 91.1113 117.681 91.1113C118.537 91.1113 119.121 90.7285 119.431 89.9629C119.599 89.5527 119.684 88.9899 119.684 88.2744V84.6787H120.914V92H119.752L119.766 90.9199C119.606 91.1979 119.408 91.4326 119.171 91.624C118.701 92.0068 118.132 92.1982 117.462 92.1982C116.418 92.1982 115.707 91.8496 115.329 91.1523C115.124 90.7786 115.021 90.2796 115.021 89.6553V84.6787H116.279ZM125.891 84.5146C126.41 84.5146 126.914 84.6377 127.401 84.8838C127.889 85.1253 128.26 85.4398 128.516 85.8271C128.762 86.1963 128.926 86.627 129.008 87.1191C129.081 87.4564 129.117 87.9941 129.117 88.7324H123.751C123.774 89.4753 123.949 90.0723 124.277 90.5234C124.605 90.9701 125.114 91.1934 125.802 91.1934C126.444 91.1934 126.957 90.9814 127.34 90.5576C127.559 90.3115 127.714 90.0267 127.805 89.7031H129.015C128.983 89.972 128.876 90.2728 128.693 90.6055C128.516 90.9336 128.315 91.2025 128.092 91.4121C127.718 91.7767 127.256 92.0228 126.704 92.1504C126.408 92.2233 126.073 92.2598 125.699 92.2598C124.788 92.2598 124.015 91.9294 123.382 91.2686C122.748 90.6032 122.432 89.6735 122.432 88.4795C122.432 87.3037 122.751 86.349 123.389 85.6152C124.027 84.8815 124.861 84.5146 125.891 84.5146ZM127.853 87.7549C127.802 87.2217 127.686 86.7956 127.504 86.4766C127.167 85.8841 126.604 85.5879 125.815 85.5879C125.25 85.5879 124.776 85.793 124.394 86.2031C124.011 86.6087 123.808 87.126 123.785 87.7549H127.853ZM131.366 89.7031C131.403 90.1133 131.505 90.4277 131.674 90.6465C131.984 91.043 132.521 91.2412 133.287 91.2412C133.743 91.2412 134.144 91.1432 134.49 90.9473C134.837 90.7467 135.01 90.4391 135.01 90.0244C135.01 89.71 134.871 89.4707 134.593 89.3066C134.415 89.2064 134.064 89.0902 133.54 88.958L132.562 88.7119C131.938 88.557 131.478 88.3838 131.182 88.1924C130.653 87.8597 130.389 87.3994 130.389 86.8115C130.389 86.1188 130.637 85.5583 131.134 85.1299C131.635 84.7015 132.307 84.4873 133.15 84.4873C134.253 84.4873 135.049 84.8109 135.536 85.458C135.841 85.8682 135.99 86.3102 135.98 86.7842H134.818C134.796 86.5062 134.698 86.2533 134.524 86.0254C134.242 85.7018 133.752 85.54 133.055 85.54C132.59 85.54 132.237 85.6289 131.995 85.8066C131.758 85.9844 131.64 86.2191 131.64 86.5107C131.64 86.8298 131.797 87.085 132.111 87.2764C132.294 87.3903 132.562 87.4906 132.918 87.5771L133.731 87.7754C134.616 87.9896 135.208 88.1969 135.509 88.3975C135.987 88.7119 136.227 89.2064 136.227 89.8809C136.227 90.5326 135.978 91.0954 135.481 91.5693C134.989 92.0433 134.237 92.2803 133.226 92.2803C132.136 92.2803 131.364 92.0342 130.908 91.542C130.457 91.0452 130.215 90.4323 130.184 89.7031H131.366ZM137.881 82.6348H139.125V84.6787H140.294V85.6836H139.125V90.4619C139.125 90.7171 139.212 90.888 139.385 90.9746C139.48 91.0247 139.64 91.0498 139.863 91.0498C139.923 91.0498 139.986 91.0498 140.055 91.0498C140.123 91.0452 140.203 91.0384 140.294 91.0293V92C140.153 92.041 140.005 92.0706 139.85 92.0889C139.699 92.1071 139.535 92.1162 139.357 92.1162C138.783 92.1162 138.394 91.9704 138.188 91.6787C137.983 91.3825 137.881 90.9997 137.881 90.5303V85.6836H136.89V84.6787H137.881V82.6348ZM141.531 84.7129H142.782V92H141.531V84.7129ZM141.531 81.958H142.782V83.3525H141.531V81.958ZM147.554 91.207C148.369 91.207 148.928 90.8994 149.229 90.2842C149.534 89.6644 149.687 88.9762 149.687 88.2197C149.687 87.5361 149.577 86.9801 149.358 86.5518C149.012 85.8773 148.415 85.54 147.567 85.54C146.815 85.54 146.269 85.8271 145.927 86.4014C145.585 86.9756 145.414 87.6683 145.414 88.4795C145.414 89.2588 145.585 89.9082 145.927 90.4277C146.269 90.9473 146.811 91.207 147.554 91.207ZM147.602 84.4668C148.545 84.4668 149.342 84.7812 149.994 85.4102C150.646 86.0391 150.972 86.9642 150.972 88.1855C150.972 89.3659 150.685 90.3411 150.11 91.1113C149.536 91.8815 148.645 92.2666 147.438 92.2666C146.43 92.2666 145.631 91.9271 145.038 91.248C144.446 90.5645 144.149 89.6484 144.149 88.5C144.149 87.2695 144.462 86.2897 145.086 85.5605C145.71 84.8314 146.549 84.4668 147.602 84.4668ZM152.441 84.6787H153.61V85.7178C153.957 85.2894 154.324 84.9818 154.711 84.7949C155.098 84.6081 155.529 84.5146 156.003 84.5146C157.042 84.5146 157.744 84.877 158.108 85.6016C158.309 85.998 158.409 86.5654 158.409 87.3037V92H157.158V87.3857C157.158 86.9391 157.092 86.5791 156.96 86.3057C156.741 85.8499 156.345 85.6221 155.771 85.6221C155.479 85.6221 155.24 85.6517 155.053 85.7109C154.715 85.8112 154.419 86.0117 154.164 86.3125C153.959 86.554 153.825 86.8047 153.761 87.0645C153.701 87.3197 153.672 87.6865 153.672 88.165V92H152.441V84.6787ZM160.966 89.7031C161.002 90.1133 161.105 90.4277 161.273 90.6465C161.583 91.043 162.121 91.2412 162.887 91.2412C163.342 91.2412 163.743 91.1432 164.09 90.9473C164.436 90.7467 164.609 90.4391 164.609 90.0244C164.609 89.71 164.47 89.4707 164.192 89.3066C164.015 89.2064 163.664 89.0902 163.14 88.958L162.162 88.7119C161.538 88.557 161.077 88.3838 160.781 88.1924C160.253 87.8597 159.988 87.3994 159.988 86.8115C159.988 86.1188 160.237 85.5583 160.733 85.1299C161.235 84.7015 161.907 84.4873 162.75 84.4873C163.853 84.4873 164.648 84.8109 165.136 85.458C165.441 85.8682 165.589 86.3102 165.58 86.7842H164.418C164.395 86.5062 164.297 86.2533 164.124 86.0254C163.841 85.7018 163.352 85.54 162.654 85.54C162.189 85.54 161.836 85.6289 161.595 85.8066C161.358 85.9844 161.239 86.2191 161.239 86.5107C161.239 86.8298 161.396 87.085 161.711 87.2764C161.893 87.3903 162.162 87.4906 162.518 87.5771L163.331 87.7754C164.215 87.9896 164.808 88.1969 165.108 88.3975C165.587 88.7119 165.826 89.2064 165.826 89.8809C165.826 90.5326 165.578 91.0954 165.081 91.5693C164.589 92.0433 163.837 92.2803 162.825 92.2803C161.736 92.2803 160.964 92.0342 160.508 91.542C160.057 91.0452 159.815 90.4323 159.783 89.7031H160.966Z" fill="black"/>
<path d="M140.646 62.2109C141.913 62.2109 142.829 62.7327 143.395 63.7764C143.832 64.583 144.051 65.6882 144.051 67.0918C144.051 68.4225 143.853 69.5231 143.456 70.3936C142.882 71.6423 141.943 72.2666 140.64 72.2666C139.464 72.2666 138.589 71.7562 138.015 70.7354C137.536 69.8831 137.297 68.7393 137.297 67.3037C137.297 66.1917 137.44 65.237 137.728 64.4395C138.265 62.9538 139.238 62.2109 140.646 62.2109ZM140.633 71.1455C141.271 71.1455 141.779 70.863 142.157 70.2979C142.535 69.7327 142.725 68.68 142.725 67.1396C142.725 66.0277 142.588 65.1139 142.314 64.3984C142.041 63.6784 141.51 63.3184 140.722 63.3184C139.997 63.3184 139.466 63.6602 139.129 64.3438C138.796 65.0228 138.63 66.0254 138.63 67.3516C138.63 68.3496 138.737 69.1517 138.951 69.7578C139.279 70.6829 139.84 71.1455 140.633 71.1455Z" fill="black"/>
<path d="M49.8008 71.958H51.127V76.8525L56.0215 71.958H57.9014L53.7246 76.0049L58.0176 82H56.2471L52.7334 76.9619L51.127 78.5V82H49.8008V71.958ZM58.9746 74.6787H60.1436V75.7178C60.4899 75.2894 60.8568 74.9818 61.2441 74.7949C61.6315 74.6081 62.0622 74.5146 62.5361 74.5146C63.5752 74.5146 64.277 74.877 64.6416 75.6016C64.8421 75.998 64.9424 76.5654 64.9424 77.3037V82H63.6914V77.3857C63.6914 76.9391 63.6253 76.5791 63.4932 76.3057C63.2744 75.8499 62.8779 75.6221 62.3037 75.6221C62.012 75.6221 61.7728 75.6517 61.5859 75.7109C61.2487 75.8112 60.9525 76.0117 60.6973 76.3125C60.4922 76.554 60.3577 76.8047 60.2939 77.0645C60.2347 77.3197 60.2051 77.6865 60.2051 78.165V82H58.9746V74.6787ZM69.8164 74.5146C70.3359 74.5146 70.8395 74.6377 71.3271 74.8838C71.8148 75.1253 72.1862 75.4398 72.4414 75.8271C72.6875 76.1963 72.8516 76.627 72.9336 77.1191C73.0065 77.4564 73.043 77.9941 73.043 78.7324H67.6768C67.6995 79.4753 67.875 80.0723 68.2031 80.5234C68.5312 80.9701 69.0394 81.1934 69.7275 81.1934C70.3701 81.1934 70.8828 80.9814 71.2656 80.5576C71.4844 80.3115 71.6393 80.0267 71.7305 79.7031H72.9404C72.9085 79.972 72.8014 80.2728 72.6191 80.6055C72.4414 80.9336 72.2409 81.2025 72.0176 81.4121C71.6439 81.7767 71.1813 82.0228 70.6299 82.1504C70.3337 82.2233 69.9987 82.2598 69.625 82.2598C68.7135 82.2598 67.9411 81.9294 67.3076 81.2686C66.6742 80.6032 66.3574 79.6735 66.3574 78.4795C66.3574 77.3037 66.6764 76.349 67.3145 75.6152C67.9525 74.8815 68.7865 74.5146 69.8164 74.5146ZM71.7783 77.7549C71.7282 77.2217 71.612 76.7956 71.4297 76.4766C71.0924 75.8841 70.5296 75.5879 69.7412 75.5879C69.1761 75.5879 68.7021 75.793 68.3193 76.2031C67.9365 76.6087 67.7337 77.126 67.7109 77.7549H71.7783ZM75.1279 74.6787L76.5361 80.4482L77.9648 74.6787H79.3457L80.7812 80.4141L82.2783 74.6787H83.5088L81.3828 82H80.1045L78.6143 76.333L77.1719 82H75.8936L73.7812 74.6787H75.1279Z" fill="black"/>
<path d="M42.8032 76.3867V77C42.802 78.4376 42.1258 79.8365 40.8756 80.9879C39.6253 82.1393 37.8679 82.9817 35.8654 83.3893C33.863 83.7969 31.7228 83.7479 29.7641 83.2497C27.8053 82.7515 26.133 81.8307 24.9965 80.6247C23.8599 79.4187 23.3201 77.9921 23.4575 76.5576C23.5949 75.1231 24.4022 73.7576 25.7589 72.6647C27.1156 71.5719 28.949 70.8103 30.9858 70.4934C33.0226 70.1766 35.1536 70.3216 37.061 70.9067" stroke="black" stroke-width="2" stroke-linecap="round" stroke-linejoin="round"/>
<path d="M30.2148 76.3334L33.1198 78.3334L42.8032 71.6667" stroke="black" stroke-width="2" stroke-linecap="round" stroke-linejoin="round"/>
<path d="M289.378 63C289.378 59.6863 292.064 57 295.378 57H384.538C387.852 57 390.538 59.6863 390.538 63V91C390.538 94.3137 387.852 97 384.538 97H295.378C292.064 97 289.378 94.3137 289.378 91V63Z" fill="#E5E7EB" fill-opacity="0.8"/>
<path d="M312.397 91.9727L311.714 92.7998L310.162 91.6172C309.788 91.8223 309.383 91.9863 308.945 92.1094C308.512 92.2324 308.038 92.2939 307.523 92.2939C305.965 92.2939 304.743 91.7835 303.859 90.7627C303.08 89.7692 302.69 88.5251 302.69 87.0303C302.69 85.6722 303.028 84.5101 303.702 83.5439C304.568 82.3044 305.849 81.6846 307.544 81.6846C309.317 81.6846 310.629 82.2542 311.481 83.3936C312.147 84.2822 312.479 85.4193 312.479 86.8047C312.479 87.4518 312.4 88.0739 312.24 88.6709C311.999 89.5824 311.591 90.3252 311.017 90.8994L312.397 91.9727ZM307.688 91.0771C307.97 91.0771 308.234 91.0589 308.48 91.0225C308.727 90.9814 308.941 90.904 309.123 90.79L308.022 89.9287L308.706 89.0879L310.019 90.1064C310.433 89.6325 310.714 89.1016 310.859 88.5137C311.01 87.9258 311.085 87.363 311.085 86.8252C311.085 85.6449 310.775 84.6947 310.155 83.9746C309.54 83.2546 308.697 82.8945 307.626 82.8945C306.541 82.8945 305.682 83.2409 305.049 83.9336C304.415 84.6217 304.099 85.6836 304.099 87.1191C304.099 88.3268 304.402 89.2884 305.008 90.0039C305.618 90.7194 306.512 91.0771 307.688 91.0771ZM315.173 84.6787V89.5391C315.173 89.9128 315.232 90.2181 315.351 90.4551C315.569 90.8926 315.977 91.1113 316.574 91.1113C317.431 91.1113 318.014 90.7285 318.324 89.9629C318.493 89.5527 318.577 88.9899 318.577 88.2744V84.6787H319.808V92H318.646L318.659 90.9199C318.5 91.1979 318.301 91.4326 318.064 91.624C317.595 92.0068 317.025 92.1982 316.355 92.1982C315.312 92.1982 314.601 91.8496 314.223 91.1523C314.018 90.7786 313.915 90.2796 313.915 89.6553V84.6787H315.173ZM324.784 84.5146C325.304 84.5146 325.807 84.6377 326.295 84.8838C326.783 85.1253 327.154 85.4398 327.409 85.8271C327.655 86.1963 327.819 86.627 327.901 87.1191C327.974 87.4564 328.011 87.9941 328.011 88.7324H322.645C322.667 89.4753 322.843 90.0723 323.171 90.5234C323.499 90.9701 324.007 91.1934 324.695 91.1934C325.338 91.1934 325.851 90.9814 326.233 90.5576C326.452 90.3115 326.607 90.0267 326.698 89.7031H327.908C327.876 89.972 327.769 90.2728 327.587 90.6055C327.409 90.9336 327.209 91.2025 326.985 91.4121C326.612 91.7767 326.149 92.0228 325.598 92.1504C325.301 92.2233 324.966 92.2598 324.593 92.2598C323.681 92.2598 322.909 91.9294 322.275 91.2686C321.642 90.6032 321.325 89.6735 321.325 88.4795C321.325 87.3037 321.644 86.349 322.282 85.6152C322.92 84.8815 323.754 84.5146 324.784 84.5146ZM326.746 87.7549C326.696 87.2217 326.58 86.7956 326.397 86.4766C326.06 85.8841 325.497 85.5879 324.709 85.5879C324.144 85.5879 323.67 85.793 323.287 86.2031C322.904 86.6087 322.701 87.126 322.679 87.7549H326.746ZM330.26 89.7031C330.296 90.1133 330.399 90.4277 330.567 90.6465C330.877 91.043 331.415 91.2412 332.181 91.2412C332.636 91.2412 333.037 91.1432 333.384 90.9473C333.73 90.7467 333.903 90.4391 333.903 90.0244C333.903 89.71 333.764 89.4707 333.486 89.3066C333.309 89.2064 332.958 89.0902 332.434 88.958L331.456 88.7119C330.832 88.557 330.371 88.3838 330.075 88.1924C329.547 87.8597 329.282 87.3994 329.282 86.8115C329.282 86.1188 329.531 85.5583 330.027 85.1299C330.529 84.7015 331.201 84.4873 332.044 84.4873C333.147 84.4873 333.942 84.8109 334.43 85.458C334.735 85.8682 334.883 86.3102 334.874 86.7842H333.712C333.689 86.5062 333.591 86.2533 333.418 86.0254C333.135 85.7018 332.646 85.54 331.948 85.54C331.483 85.54 331.13 85.6289 330.889 85.8066C330.652 85.9844 330.533 86.2191 330.533 86.5107C330.533 86.8298 330.69 87.085 331.005 87.2764C331.187 87.3903 331.456 87.4906 331.812 87.5771L332.625 87.7754C333.509 87.9896 334.102 88.1969 334.402 88.3975C334.881 88.7119 335.12 89.2064 335.12 89.8809C335.12 90.5326 334.872 91.0954 334.375 91.5693C333.883 92.0433 333.131 92.2803 332.119 92.2803C331.03 92.2803 330.257 92.0342 329.802 91.542C329.351 91.0452 329.109 90.4323 329.077 89.7031H330.26ZM336.774 82.6348H338.019V84.6787H339.188V85.6836H338.019V90.4619C338.019 90.7171 338.105 90.888 338.278 90.9746C338.374 91.0247 338.534 91.0498 338.757 91.0498C338.816 91.0498 338.88 91.0498 338.948 91.0498C339.017 91.0452 339.096 91.0384 339.188 91.0293V92C339.046 92.041 338.898 92.0706 338.743 92.0889C338.593 92.1071 338.429 92.1162 338.251 92.1162C337.677 92.1162 337.287 91.9704 337.082 91.6787C336.877 91.3825 336.774 90.9997 336.774 90.5303V85.6836H335.783V84.6787H336.774V82.6348ZM340.425 84.7129H341.676V92H340.425V84.7129ZM340.425 81.958H341.676V83.3525H340.425V81.958ZM346.447 91.207C347.263 91.207 347.821 90.8994 348.122 90.2842C348.427 89.6644 348.58 88.9762 348.58 88.2197C348.58 87.5361 348.471 86.9801 348.252 86.5518C347.906 85.8773 347.309 85.54 346.461 85.54C345.709 85.54 345.162 85.8271 344.82 86.4014C344.479 86.9756 344.308 87.6683 344.308 88.4795C344.308 89.2588 344.479 89.9082 344.82 90.4277C345.162 90.9473 345.704 91.207 346.447 91.207ZM346.495 84.4668C347.438 84.4668 348.236 84.7812 348.888 85.4102C349.539 86.0391 349.865 86.9642 349.865 88.1855C349.865 89.3659 349.578 90.3411 349.004 91.1113C348.43 91.8815 347.539 92.2666 346.331 92.2666C345.324 92.2666 344.524 91.9271 343.932 91.248C343.339 90.5645 343.043 89.6484 343.043 88.5C343.043 87.2695 343.355 86.2897 343.979 85.5605C344.604 84.8314 345.442 84.4668 346.495 84.4668ZM351.335 84.6787H352.504V85.7178C352.85 85.2894 353.217 84.9818 353.604 84.7949C353.992 84.6081 354.423 84.5146 354.896 84.5146C355.936 84.5146 356.637 84.877 357.002 85.6016C357.202 85.998 357.303 86.5654 357.303 87.3037V92H356.052V87.3857C356.052 86.9391 355.986 86.5791 355.854 86.3057C355.635 85.8499 355.238 85.6221 354.664 85.6221C354.372 85.6221 354.133 85.6517 353.946 85.7109C353.609 85.8112 353.313 86.0117 353.058 86.3125C352.853 86.554 352.718 86.8047 352.654 87.0645C352.595 87.3197 352.565 87.6865 352.565 88.165V92H351.335V84.6787ZM359.859 89.7031C359.896 90.1133 359.998 90.4277 360.167 90.6465C360.477 91.043 361.015 91.2412 361.78 91.2412C362.236 91.2412 362.637 91.1432 362.983 90.9473C363.33 90.7467 363.503 90.4391 363.503 90.0244C363.503 89.71 363.364 89.4707 363.086 89.3066C362.908 89.2064 362.557 89.0902 362.033 88.958L361.056 88.7119C360.431 88.557 359.971 88.3838 359.675 88.1924C359.146 87.8597 358.882 87.3994 358.882 86.8115C358.882 86.1188 359.13 85.5583 359.627 85.1299C360.128 84.7015 360.8 84.4873 361.644 84.4873C362.746 84.4873 363.542 84.8109 364.029 85.458C364.335 85.8682 364.483 86.3102 364.474 86.7842H363.312C363.289 86.5062 363.191 86.2533 363.018 86.0254C362.735 85.7018 362.245 85.54 361.548 85.54C361.083 85.54 360.73 85.6289 360.488 85.8066C360.251 85.9844 360.133 86.2191 360.133 86.5107C360.133 86.8298 360.29 87.085 360.604 87.2764C360.787 87.3903 361.056 87.4906 361.411 87.5771L362.225 87.7754C363.109 87.9896 363.701 88.1969 364.002 88.3975C364.48 88.7119 364.72 89.2064 364.72 89.8809C364.72 90.5326 364.471 91.0954 363.975 91.5693C363.482 92.0433 362.73 92.2803 361.719 92.2803C360.63 92.2803 359.857 92.0342 359.401 91.542C358.95 91.0452 358.709 90.4323 358.677 89.7031H359.859Z" fill="black"/>
<path d="M339.54 62.2109C340.807 62.2109 341.723 62.7327 342.288 63.7764C342.726 64.583 342.944 65.6882 342.944 67.0918C342.944 68.4225 342.746 69.5231 342.35 70.3936C341.775 71.6423 340.837 72.2666 339.533 72.2666C338.357 72.2666 337.482 71.7562 336.908 70.7354C336.43 69.8831 336.19 68.7393 336.19 67.3037C336.19 66.1917 336.334 65.237 336.621 64.4395C337.159 62.9538 338.132 62.2109 339.54 62.2109ZM339.526 71.1455C340.164 71.1455 340.673 70.863 341.051 70.2979C341.429 69.7327 341.618 68.68 341.618 67.1396C341.618 66.0277 341.481 65.1139 341.208 64.3984C340.935 63.6784 340.404 63.3184 339.615 63.3184C338.891 63.3184 338.36 63.6602 338.022 64.3438C337.69 65.0228 337.523 66.0254 337.523 67.3516C337.523 68.3496 337.631 69.1517 337.845 69.7578C338.173 70.6829 338.733 71.1455 339.526 71.1455Z" fill="black"/>
<path d="M232.022 71.958H233.383V80.8037H238.469V82H232.022V71.958ZM242.7 74.5146C243.22 74.5146 243.723 74.6377 244.211 74.8838C244.699 75.1253 245.07 75.4398 245.325 75.8271C245.571 76.1963 245.735 76.627 245.817 77.1191C245.89 77.4564 245.927 77.9941 245.927 78.7324H240.561C240.583 79.4753 240.759 80.0723 241.087 80.5234C241.415 80.9701 241.923 81.1934 242.611 81.1934C243.254 81.1934 243.767 80.9814 244.149 80.5576C244.368 80.3115 244.523 80.0267 244.614 79.7031H245.824C245.792 79.972 245.685 80.2728 245.503 80.6055C245.325 80.9336 245.125 81.2025 244.901 81.4121C244.528 81.7767 244.065 82.0228 243.514 82.1504C243.217 82.2233 242.882 82.2598 242.509 82.2598C241.597 82.2598 240.825 81.9294 240.191 81.2686C239.558 80.6032 239.241 79.6735 239.241 78.4795C239.241 77.3037 239.56 76.349 240.198 75.6152C240.836 74.8815 241.67 74.5146 242.7 74.5146ZM244.662 77.7549C244.612 77.2217 244.496 76.7956 244.313 76.4766C243.976 75.8841 243.413 75.5879 242.625 75.5879C242.06 75.5879 241.586 75.793 241.203 76.2031C240.82 76.6087 240.618 77.126 240.595 77.7549H244.662ZM248.388 80.0518C248.388 80.4072 248.518 80.6875 248.777 80.8926C249.037 81.0977 249.345 81.2002 249.7 81.2002C250.133 81.2002 250.552 81.0999 250.958 80.8994C251.642 80.5667 251.983 80.0221 251.983 79.2656V78.2744C251.833 78.3701 251.639 78.4499 251.402 78.5137C251.165 78.5775 250.933 78.623 250.705 78.6504L249.96 78.7461C249.513 78.8053 249.178 78.8988 248.955 79.0264C248.577 79.2406 248.388 79.5824 248.388 80.0518ZM251.368 77.5635C251.651 77.527 251.84 77.4085 251.936 77.208C251.99 77.0986 252.018 76.9414 252.018 76.7363C252.018 76.3171 251.867 76.014 251.566 75.8271C251.27 75.6357 250.844 75.54 250.288 75.54C249.646 75.54 249.19 75.7132 248.921 76.0596C248.771 76.251 248.673 76.5358 248.627 76.9141H247.479C247.501 76.0117 247.793 75.3851 248.354 75.0342C248.919 74.6787 249.573 74.501 250.315 74.501C251.177 74.501 251.876 74.665 252.414 74.9932C252.947 75.3213 253.214 75.8317 253.214 76.5244V80.7422C253.214 80.8698 253.239 80.9723 253.289 81.0498C253.344 81.1273 253.455 81.166 253.624 81.166C253.679 81.166 253.74 81.1637 253.809 81.1592C253.877 81.1501 253.95 81.1387 254.027 81.125V82.0342C253.836 82.0889 253.69 82.123 253.59 82.1367C253.49 82.1504 253.353 82.1572 253.18 82.1572C252.756 82.1572 252.448 82.0068 252.257 81.7061C252.157 81.5465 252.086 81.321 252.045 81.0293C251.794 81.3574 251.434 81.6423 250.965 81.8838C250.495 82.1253 249.978 82.2461 249.413 82.2461C248.734 82.2461 248.178 82.041 247.745 81.6309C247.317 81.2161 247.103 80.6989 247.103 80.0791C247.103 79.4001 247.314 78.8737 247.738 78.5C248.162 78.1263 248.718 77.8962 249.406 77.8096L251.368 77.5635ZM255.271 74.6787H256.44V75.9434C256.536 75.6973 256.771 75.3988 257.145 75.0479C257.518 74.6924 257.949 74.5146 258.437 74.5146C258.459 74.5146 258.498 74.5169 258.553 74.5215C258.607 74.526 258.701 74.5352 258.833 74.5488V75.8477C258.76 75.834 258.692 75.8249 258.628 75.8203C258.569 75.8158 258.503 75.8135 258.43 75.8135C257.81 75.8135 257.334 76.014 257.001 76.415C256.668 76.8115 256.502 77.2695 256.502 77.7891V82H255.271V74.6787ZM259.899 74.6787H261.068V75.7178C261.415 75.2894 261.782 74.9818 262.169 74.7949C262.556 74.6081 262.987 74.5146 263.461 74.5146C264.5 74.5146 265.202 74.877 265.566 75.6016C265.767 75.998 265.867 76.5654 265.867 77.3037V82H264.616V77.3857C264.616 76.9391 264.55 76.5791 264.418 76.3057C264.199 75.8499 263.803 75.6221 263.229 75.6221C262.937 75.6221 262.698 75.6517 262.511 75.7109C262.174 75.8112 261.877 76.0117 261.622 76.3125C261.417 76.554 261.283 76.8047 261.219 77.0645C261.16 77.3197 261.13 77.6865 261.13 78.165V82H259.899V74.6787ZM267.938 72.6348H269.183V74.6787H270.352V75.6836H269.183V80.4619C269.183 80.7171 269.269 80.888 269.442 80.9746C269.538 81.0247 269.698 81.0498 269.921 81.0498C269.98 81.0498 270.044 81.0498 270.112 81.0498C270.181 81.0452 270.26 81.0384 270.352 81.0293V82C270.21 82.041 270.062 82.0706 269.907 82.0889C269.757 82.1071 269.593 82.1162 269.415 82.1162C268.841 82.1162 268.451 81.9704 268.246 81.6787C268.041 81.3825 267.938 80.9997 267.938 80.5303V75.6836H266.947V74.6787H267.938V72.6348Z" fill="black"/>
<path d="M215.38 71L213.535 74.8753C213.44 75.0737 213.28 75.2539 213.066 75.4016C212.852 75.5492 212.591 75.6601 212.304 75.7253L206.695 77L212.304 78.2747C212.591 78.3399 212.852 78.4508 213.066 78.5984C213.28 78.7461 213.44 78.9263 213.535 79.1247L215.38 83L217.225 79.1247C217.319 78.9263 217.48 78.7461 217.694 78.5984C217.907 78.4508 218.168 78.3399 218.455 78.2747L224.065 77L218.455 75.7253C218.168 75.6601 217.907 75.5492 217.694 75.4016C217.48 75.2539 217.319 75.0737 217.225 74.8753L215.38 71Z" stroke="black" stroke-width="2" stroke-linecap="round" stroke-linejoin="round"/>
<path d="M208.625 71V73.6667" stroke="black" stroke-width="2" stroke-linecap="round" stroke-linejoin="round"/>
<path d="M222.135 80.3333V83" stroke="black" stroke-width="2" stroke-linecap="round" stroke-linejoin="round"/>
<path d="M206.695 72.3333H210.555" stroke="black" stroke-width="2" stroke-linecap="round" stroke-linejoin="round"/>
<path d="M220.205 81.6667H224.065" stroke="black" stroke-width="2" stroke-linecap="round" stroke-linejoin="round"/>
<path d="M496.46 63C496.46 59.6863 499.146 57 502.46 57H591.5C594.814 57 597.5 59.6863 597.5 63V91C597.5 94.3137 594.814 97 591.5 97H502.46C499.146 97 496.46 94.3137 496.46 91V63Z" fill="#E5E7EB" fill-opacity="0.8"/>
<path d="M519.417 91.9727L518.733 92.7998L517.182 91.6172C516.808 91.8223 516.402 91.9863 515.965 92.1094C515.532 92.2324 515.058 92.2939 514.543 92.2939C512.984 92.2939 511.763 91.7835 510.879 90.7627C510.1 89.7692 509.71 88.5251 509.71 87.0303C509.71 85.6722 510.047 84.5101 510.722 83.5439C511.588 82.3044 512.868 81.6846 514.563 81.6846C516.336 81.6846 517.649 82.2542 518.501 83.3936C519.166 84.2822 519.499 85.4193 519.499 86.8047C519.499 87.4518 519.419 88.0739 519.26 88.6709C519.018 89.5824 518.61 90.3252 518.036 90.8994L519.417 91.9727ZM514.707 91.0771C514.99 91.0771 515.254 91.0589 515.5 91.0225C515.746 90.9814 515.96 90.904 516.143 90.79L515.042 89.9287L515.726 89.0879L517.038 90.1064C517.453 89.6325 517.733 89.1016 517.879 88.5137C518.029 87.9258 518.104 87.363 518.104 86.8252C518.104 85.6449 517.795 84.6947 517.175 83.9746C516.56 83.2546 515.716 82.8945 514.646 82.8945C513.561 82.8945 512.702 83.2409 512.068 83.9336C511.435 84.6217 511.118 85.6836 511.118 87.1191C511.118 88.3268 511.421 89.2884 512.027 90.0039C512.638 90.7194 513.531 91.0771 514.707 91.0771ZM522.192 84.6787V89.5391C522.192 89.9128 522.252 90.2181 522.37 90.4551C522.589 90.8926 522.997 91.1113 523.594 91.1113C524.451 91.1113 525.034 90.7285 525.344 89.9629C525.512 89.5527 525.597 88.9899 525.597 88.2744V84.6787H526.827V92H525.665L525.679 90.9199C525.519 91.1979 525.321 91.4326 525.084 91.624C524.615 92.0068 524.045 92.1982 523.375 92.1982C522.331 92.1982 521.62 91.8496 521.242 91.1523C521.037 90.7786 520.935 90.2796 520.935 89.6553V84.6787H522.192ZM531.804 84.5146C532.323 84.5146 532.827 84.6377 533.314 84.8838C533.802 85.1253 534.174 85.4398 534.429 85.8271C534.675 86.1963 534.839 86.627 534.921 87.1191C534.994 87.4564 535.03 87.9941 535.03 88.7324H529.664C529.687 89.4753 529.862 90.0723 530.19 90.5234C530.519 90.9701 531.027 91.1934 531.715 91.1934C532.357 91.1934 532.87 90.9814 533.253 90.5576C533.472 90.3115 533.627 90.0267 533.718 89.7031H534.928C534.896 89.972 534.789 90.2728 534.606 90.6055C534.429 90.9336 534.228 91.2025 534.005 91.4121C533.631 91.7767 533.169 92.0228 532.617 92.1504C532.321 92.2233 531.986 92.2598 531.612 92.2598C530.701 92.2598 529.928 91.9294 529.295 91.2686C528.661 90.6032 528.345 89.6735 528.345 88.4795C528.345 87.3037 528.664 86.349 529.302 85.6152C529.94 84.8815 530.774 84.5146 531.804 84.5146ZM533.766 87.7549C533.715 87.2217 533.599 86.7956 533.417 86.4766C533.08 85.8841 532.517 85.5879 531.729 85.5879C531.163 85.5879 530.689 85.793 530.307 86.2031C529.924 86.6087 529.721 87.126 529.698 87.7549H533.766ZM537.279 89.7031C537.316 90.1133 537.418 90.4277 537.587 90.6465C537.897 91.043 538.435 91.2412 539.2 91.2412C539.656 91.2412 540.057 91.1432 540.403 90.9473C540.75 90.7467 540.923 90.4391 540.923 90.0244C540.923 89.71 540.784 89.4707 540.506 89.3066C540.328 89.2064 539.977 89.0902 539.453 88.958L538.476 88.7119C537.851 88.557 537.391 88.3838 537.095 88.1924C536.566 87.8597 536.302 87.3994 536.302 86.8115C536.302 86.1188 536.55 85.5583 537.047 85.1299C537.548 84.7015 538.22 84.4873 539.063 84.4873C540.166 84.4873 540.962 84.8109 541.449 85.458C541.755 85.8682 541.903 86.3102 541.894 86.7842H540.731C540.709 86.5062 540.611 86.2533 540.438 86.0254C540.155 85.7018 539.665 85.54 538.968 85.54C538.503 85.54 538.15 85.6289 537.908 85.8066C537.671 85.9844 537.553 86.2191 537.553 86.5107C537.553 86.8298 537.71 87.085 538.024 87.2764C538.207 87.3903 538.476 87.4906 538.831 87.5771L539.645 87.7754C540.529 87.9896 541.121 88.1969 541.422 88.3975C541.9 88.7119 542.14 89.2064 542.14 89.8809C542.14 90.5326 541.891 91.0954 541.395 91.5693C540.902 92.0433 540.15 92.2803 539.139 92.2803C538.049 92.2803 537.277 92.0342 536.821 91.542C536.37 91.0452 536.129 90.4323 536.097 89.7031H537.279ZM543.794 82.6348H545.038V84.6787H546.207V85.6836H545.038V90.4619C545.038 90.7171 545.125 90.888 545.298 90.9746C545.394 91.0247 545.553 91.0498 545.776 91.0498C545.836 91.0498 545.899 91.0498 545.968 91.0498C546.036 91.0452 546.116 91.0384 546.207 91.0293V92C546.066 92.041 545.918 92.0706 545.763 92.0889C545.612 92.1071 545.448 92.1162 545.271 92.1162C544.696 92.1162 544.307 91.9704 544.102 91.6787C543.896 91.3825 543.794 90.9997 543.794 90.5303V85.6836H542.803V84.6787H543.794V82.6348ZM547.444 84.7129H548.695V92H547.444V84.7129ZM547.444 81.958H548.695V83.3525H547.444V81.958ZM553.467 91.207C554.283 91.207 554.841 90.8994 555.142 90.2842C555.447 89.6644 555.6 88.9762 555.6 88.2197C555.6 87.5361 555.49 86.9801 555.271 86.5518C554.925 85.8773 554.328 85.54 553.48 85.54C552.729 85.54 552.182 85.8271 551.84 86.4014C551.498 86.9756 551.327 87.6683 551.327 88.4795C551.327 89.2588 551.498 89.9082 551.84 90.4277C552.182 90.9473 552.724 91.207 553.467 91.207ZM553.515 84.4668C554.458 84.4668 555.256 84.7812 555.907 85.4102C556.559 86.0391 556.885 86.9642 556.885 88.1855C556.885 89.3659 556.598 90.3411 556.023 91.1113C555.449 91.8815 554.558 92.2666 553.351 92.2666C552.343 92.2666 551.544 91.9271 550.951 91.248C550.359 90.5645 550.062 89.6484 550.062 88.5C550.062 87.2695 550.375 86.2897 550.999 85.5605C551.623 84.8314 552.462 84.4668 553.515 84.4668ZM558.354 84.6787H559.523V85.7178C559.87 85.2894 560.237 84.9818 560.624 84.7949C561.011 84.6081 561.442 84.5146 561.916 84.5146C562.955 84.5146 563.657 84.877 564.021 85.6016C564.222 85.998 564.322 86.5654 564.322 87.3037V92H563.071V87.3857C563.071 86.9391 563.005 86.5791 562.873 86.3057C562.654 85.8499 562.258 85.6221 561.684 85.6221C561.392 85.6221 561.153 85.6517 560.966 85.7109C560.629 85.8112 560.332 86.0117 560.077 86.3125C559.872 86.554 559.738 86.8047 559.674 87.0645C559.615 87.3197 559.585 87.6865 559.585 88.165V92H558.354V84.6787ZM566.879 89.7031C566.915 90.1133 567.018 90.4277 567.187 90.6465C567.496 91.043 568.034 91.2412 568.8 91.2412C569.256 91.2412 569.657 91.1432 570.003 90.9473C570.349 90.7467 570.522 90.4391 570.522 90.0244C570.522 89.71 570.383 89.4707 570.105 89.3066C569.928 89.2064 569.577 89.0902 569.053 88.958L568.075 88.7119C567.451 88.557 566.991 88.3838 566.694 88.1924C566.166 87.8597 565.901 87.3994 565.901 86.8115C565.901 86.1188 566.15 85.5583 566.646 85.1299C567.148 84.7015 567.82 84.4873 568.663 84.4873C569.766 84.4873 570.561 84.8109 571.049 85.458C571.354 85.8682 571.502 86.3102 571.493 86.7842H570.331C570.308 86.5062 570.21 86.2533 570.037 86.0254C569.755 85.7018 569.265 85.54 568.567 85.54C568.103 85.54 567.749 85.6289 567.508 85.8066C567.271 85.9844 567.152 86.2191 567.152 86.5107C567.152 86.8298 567.31 87.085 567.624 87.2764C567.806 87.3903 568.075 87.4906 568.431 87.5771L569.244 87.7754C570.128 87.9896 570.721 88.1969 571.021 88.3975C571.5 88.7119 571.739 89.2064 571.739 89.8809C571.739 90.5326 571.491 91.0954 570.994 91.5693C570.502 92.0433 569.75 92.2803 568.738 92.2803C567.649 92.2803 566.877 92.0342 566.421 91.542C565.97 91.0452 565.728 90.4323 565.696 89.7031H566.879Z" fill="black"/>
<path d="M546.56 62.2109C547.826 62.2109 548.743 62.7327 549.308 63.7764C549.745 64.583 549.964 65.6882 549.964 67.0918C549.964 68.4225 549.766 69.5231 549.369 70.3936C548.795 71.6423 547.856 72.2666 546.553 72.2666C545.377 72.2666 544.502 71.7562 543.928 70.7354C543.449 69.8831 543.21 68.7393 543.21 67.3037C543.21 66.1917 543.354 65.237 543.641 64.4395C544.178 62.9538 545.151 62.2109 546.56 62.2109ZM546.546 71.1455C547.184 71.1455 547.692 70.863 548.07 70.2979C548.449 69.7327 548.638 68.68 548.638 67.1396C548.638 66.0277 548.501 65.1139 548.228 64.3984C547.954 63.6784 547.423 63.3184 546.635 63.3184C545.91 63.3184 545.379 63.6602 545.042 64.3438C544.709 65.0228 544.543 66.0254 544.543 67.3516C544.543 68.3496 544.65 69.1517 544.864 69.7578C545.192 70.6829 545.753 71.1455 546.546 71.1455Z" fill="black"/>
<path d="M431.603 78.7598C431.634 79.3294 431.769 79.792 432.006 80.1475C432.457 80.8128 433.252 81.1455 434.392 81.1455C434.902 81.1455 435.367 81.0726 435.786 80.9268C436.597 80.6442 437.003 80.1383 437.003 79.4092C437.003 78.8623 436.832 78.4727 436.49 78.2402C436.144 78.0124 435.602 77.8141 434.863 77.6455L433.503 77.3379C432.614 77.1374 431.985 76.9163 431.616 76.6748C430.978 76.2555 430.659 75.6289 430.659 74.7949C430.659 73.8926 430.971 73.152 431.596 72.5732C432.22 71.9945 433.104 71.7051 434.248 71.7051C435.301 71.7051 436.194 71.9603 436.928 72.4707C437.666 72.9766 438.035 73.7878 438.035 74.9043H436.757C436.688 74.3665 436.543 73.9541 436.319 73.667C435.905 73.1429 435.201 72.8809 434.207 72.8809C433.405 72.8809 432.828 73.0495 432.478 73.3867C432.127 73.724 431.951 74.1159 431.951 74.5625C431.951 75.0547 432.156 75.4147 432.566 75.6426C432.835 75.7884 433.444 75.9707 434.392 76.1895L435.8 76.5107C436.479 76.6657 437.003 76.8776 437.372 77.1465C438.01 77.6159 438.329 78.2972 438.329 79.1904C438.329 80.3024 437.924 81.0977 437.112 81.5762C436.306 82.0547 435.367 82.2939 434.296 82.2939C433.047 82.2939 432.07 81.9749 431.363 81.3369C430.657 80.7035 430.311 79.8444 430.324 78.7598H431.603ZM439.86 71.958H441.043V77.7891L444.201 74.6787H445.773L442.971 77.4199L445.931 82H444.358L442.075 78.3086L441.043 79.252V82H439.86V71.958ZM446.888 74.7129H448.139V82H446.888V74.7129ZM446.888 71.958H448.139V73.3525H446.888V71.958ZM453.095 81.1729C453.669 81.1729 454.145 80.9336 454.523 80.4551C454.906 79.972 455.098 79.252 455.098 78.2949C455.098 77.7116 455.013 77.2103 454.845 76.791C454.526 75.9844 453.942 75.5811 453.095 75.5811C452.243 75.5811 451.659 76.0072 451.345 76.8594C451.176 77.3151 451.092 77.8939 451.092 78.5957C451.092 79.1608 451.176 79.6416 451.345 80.0381C451.664 80.7946 452.247 81.1729 453.095 81.1729ZM449.909 74.7129H451.105V75.6836C451.352 75.3509 451.62 75.0934 451.912 74.9111C452.327 74.6377 452.814 74.501 453.375 74.501C454.204 74.501 454.909 74.82 455.487 75.458C456.066 76.0915 456.355 76.9984 456.355 78.1787C456.355 79.7738 455.938 80.9131 455.104 81.5967C454.576 82.0296 453.961 82.2461 453.259 82.2461C452.707 82.2461 452.245 82.1253 451.871 81.8838C451.652 81.7471 451.409 81.5124 451.14 81.1797V84.9189H449.909V74.7129ZM460.888 81.1729C461.462 81.1729 461.938 80.9336 462.316 80.4551C462.699 79.972 462.891 79.252 462.891 78.2949C462.891 77.7116 462.806 77.2103 462.638 76.791C462.319 75.9844 461.735 75.5811 460.888 75.5811C460.035 75.5811 459.452 76.0072 459.138 76.8594C458.969 77.3151 458.885 77.8939 458.885 78.5957C458.885 79.1608 458.969 79.6416 459.138 80.0381C459.457 80.7946 460.04 81.1729 460.888 81.1729ZM457.702 74.7129H458.898V75.6836C459.145 75.3509 459.413 75.0934 459.705 74.9111C460.12 74.6377 460.607 74.501 461.168 74.501C461.997 74.501 462.701 74.82 463.28 75.458C463.859 76.0915 464.148 76.9984 464.148 78.1787C464.148 79.7738 463.731 80.9131 462.897 81.5967C462.369 82.0296 461.754 82.2461 461.052 82.2461C460.5 82.2461 460.038 82.1253 459.664 81.8838C459.445 81.7471 459.201 81.5124 458.933 81.1797V84.9189H457.702V74.7129ZM468.64 74.5146C469.159 74.5146 469.663 74.6377 470.15 74.8838C470.638 75.1253 471.009 75.4398 471.265 75.8271C471.511 76.1963 471.675 76.627 471.757 77.1191C471.83 77.4564 471.866 77.9941 471.866 78.7324H466.5C466.523 79.4753 466.698 80.0723 467.026 80.5234C467.354 80.9701 467.863 81.1934 468.551 81.1934C469.193 81.1934 469.706 80.9814 470.089 80.5576C470.308 80.3115 470.463 80.0267 470.554 79.7031H471.764C471.732 79.972 471.625 80.2728 471.442 80.6055C471.265 80.9336 471.064 81.2025 470.841 81.4121C470.467 81.7767 470.005 82.0228 469.453 82.1504C469.157 82.2233 468.822 82.2598 468.448 82.2598C467.537 82.2598 466.764 81.9294 466.131 81.2686C465.497 80.6032 465.181 79.6735 465.181 78.4795C465.181 77.3037 465.5 76.349 466.138 75.6152C466.776 74.8815 467.61 74.5146 468.64 74.5146ZM470.602 77.7549C470.551 77.2217 470.435 76.7956 470.253 76.4766C469.916 75.8841 469.353 75.5879 468.564 75.5879C467.999 75.5879 467.525 75.793 467.143 76.2031C466.76 76.6087 466.557 77.126 466.534 77.7549H470.602ZM474.163 78.4248C474.163 79.2087 474.329 79.8649 474.662 80.3936C474.995 80.9222 475.528 81.1865 476.262 81.1865C476.831 81.1865 477.299 80.9427 477.663 80.4551C478.032 79.9629 478.217 79.2588 478.217 78.3428C478.217 77.4176 478.028 76.734 477.649 76.292C477.271 75.8454 476.804 75.6221 476.248 75.6221C475.628 75.6221 475.125 75.859 474.737 76.333C474.354 76.807 474.163 77.5042 474.163 78.4248ZM476.016 74.5488C476.576 74.5488 477.046 74.6673 477.424 74.9043C477.643 75.041 477.891 75.2803 478.169 75.6221V71.9238H479.352V82H478.244V80.9814C477.957 81.4326 477.618 81.7585 477.226 81.959C476.834 82.1595 476.385 82.2598 475.879 82.2598C475.063 82.2598 474.357 81.918 473.76 81.2344C473.163 80.5462 472.864 79.6325 472.864 78.4932C472.864 77.4268 473.135 76.5039 473.678 75.7246C474.225 74.9408 475.004 74.5488 476.016 74.5488Z" fill="black"/>
<path d="M407.353 71.6667L416.982 77L407.353 82.3334V71.6667Z" stroke="black" stroke-width="2" stroke-linecap="round" stroke-linejoin="round"/>
<path d="M420.833 72.3333V81.6666" stroke="black" stroke-width="2" stroke-linecap="round" stroke-linejoin="round"/>
<path d="M643.233 76.5586C643.871 76.5586 644.375 76.431 644.744 76.1758C645.118 75.9206 645.305 75.4603 645.305 74.7949C645.305 74.0794 645.045 73.5918 644.525 73.332C644.247 73.1953 643.876 73.127 643.411 73.127H640.089V76.5586H643.233ZM638.729 71.958H643.377C644.143 71.958 644.774 72.0697 645.271 72.293C646.214 72.7214 646.686 73.512 646.686 74.665C646.686 75.2666 646.56 75.7588 646.31 76.1416C646.063 76.5244 645.717 76.832 645.271 77.0645C645.662 77.224 645.956 77.4336 646.152 77.6934C646.353 77.9531 646.465 78.3747 646.487 78.958L646.535 80.3047C646.549 80.6875 646.581 80.9723 646.631 81.1592C646.713 81.4782 646.859 81.6833 647.068 81.7744V82H645.4C645.355 81.9134 645.318 81.8018 645.291 81.665C645.264 81.5283 645.241 81.264 645.223 80.8721L645.141 79.1973C645.109 78.541 644.865 78.1012 644.409 77.8779C644.149 77.7549 643.742 77.6934 643.186 77.6934H640.089V82H638.729V71.958ZM651.566 74.5146C652.086 74.5146 652.59 74.6377 653.077 74.8838C653.565 75.1253 653.936 75.4398 654.191 75.8271C654.438 76.1963 654.602 76.627 654.684 77.1191C654.757 77.4564 654.793 77.9941 654.793 78.7324H649.427C649.45 79.4753 649.625 80.0723 649.953 80.5234C650.281 80.9701 650.789 81.1934 651.478 81.1934C652.12 81.1934 652.633 80.9814 653.016 80.5576C653.234 80.3115 653.389 80.0267 653.48 79.7031H654.69C654.659 79.972 654.551 80.2728 654.369 80.6055C654.191 80.9336 653.991 81.2025 653.768 81.4121C653.394 81.7767 652.931 82.0228 652.38 82.1504C652.084 82.2233 651.749 82.2598 651.375 82.2598C650.464 82.2598 649.691 81.9294 649.058 81.2686C648.424 80.6032 648.107 79.6735 648.107 78.4795C648.107 77.3037 648.426 76.349 649.064 75.6152C649.702 74.8815 650.536 74.5146 651.566 74.5146ZM653.528 77.7549C653.478 77.2217 653.362 76.7956 653.18 76.4766C652.842 75.8841 652.28 75.5879 651.491 75.5879C650.926 75.5879 650.452 75.793 650.069 76.2031C649.687 76.6087 649.484 77.126 649.461 77.7549H653.528ZM657.042 79.7031C657.078 80.1133 657.181 80.4277 657.35 80.6465C657.66 81.043 658.197 81.2412 658.963 81.2412C659.419 81.2412 659.82 81.1432 660.166 80.9473C660.512 80.7467 660.686 80.4391 660.686 80.0244C660.686 79.71 660.547 79.4707 660.269 79.3066C660.091 79.2064 659.74 79.0902 659.216 78.958L658.238 78.7119C657.614 78.557 657.154 78.3838 656.857 78.1924C656.329 77.8597 656.064 77.3994 656.064 76.8115C656.064 76.1188 656.313 75.5583 656.81 75.1299C657.311 74.7015 657.983 74.4873 658.826 74.4873C659.929 74.4873 660.724 74.8109 661.212 75.458C661.517 75.8682 661.665 76.3102 661.656 76.7842H660.494C660.471 76.5062 660.373 76.2533 660.2 76.0254C659.918 75.7018 659.428 75.54 658.73 75.54C658.266 75.54 657.912 75.6289 657.671 75.8066C657.434 75.9844 657.315 76.2191 657.315 76.5107C657.315 76.8298 657.473 77.085 657.787 77.2764C657.969 77.3903 658.238 77.4906 658.594 77.5771L659.407 77.7754C660.291 77.9896 660.884 78.1969 661.185 78.3975C661.663 78.7119 661.902 79.2064 661.902 79.8809C661.902 80.5326 661.654 81.0954 661.157 81.5693C660.665 82.0433 659.913 82.2803 658.901 82.2803C657.812 82.2803 657.04 82.0342 656.584 81.542C656.133 81.0452 655.891 80.4323 655.859 79.7031H657.042ZM666.359 74.5146C666.879 74.5146 667.382 74.6377 667.87 74.8838C668.358 75.1253 668.729 75.4398 668.984 75.8271C669.23 76.1963 669.395 76.627 669.477 77.1191C669.549 77.4564 669.586 77.9941 669.586 78.7324H664.22C664.243 79.4753 664.418 80.0723 664.746 80.5234C665.074 80.9701 665.582 81.1934 666.271 81.1934C666.913 81.1934 667.426 80.9814 667.809 80.5576C668.027 80.3115 668.182 80.0267 668.273 79.7031H669.483C669.451 79.972 669.344 80.2728 669.162 80.6055C668.984 80.9336 668.784 81.2025 668.561 81.4121C668.187 81.7767 667.724 82.0228 667.173 82.1504C666.877 82.2233 666.542 82.2598 666.168 82.2598C665.257 82.2598 664.484 81.9294 663.851 81.2686C663.217 80.6032 662.9 79.6735 662.9 78.4795C662.9 77.3037 663.219 76.349 663.857 75.6152C664.495 74.8815 665.329 74.5146 666.359 74.5146ZM668.321 77.7549C668.271 77.2217 668.155 76.7956 667.973 76.4766C667.635 75.8841 667.073 75.5879 666.284 75.5879C665.719 75.5879 665.245 75.793 664.862 76.2031C664.479 76.6087 664.277 77.126 664.254 77.7549H668.321ZM671.35 72.6348H672.594V74.6787H673.763V75.6836H672.594V80.4619C672.594 80.7171 672.68 80.888 672.854 80.9746C672.949 81.0247 673.109 81.0498 673.332 81.0498C673.391 81.0498 673.455 81.0498 673.523 81.0498C673.592 81.0452 673.672 81.0384 673.763 81.0293V82C673.621 82.041 673.473 82.0706 673.318 82.0889C673.168 82.1071 673.004 82.1162 672.826 82.1162C672.252 82.1162 671.862 81.9704 671.657 81.6787C671.452 81.3825 671.35 80.9997 671.35 80.5303V75.6836H670.358V74.6787H671.35V72.6348Z" fill="#DC2626"/>
<path d="M612.498 77C612.498 78.1867 613.026 79.3467 614.015 80.3334C615.004 81.3201 616.409 82.0892 618.054 82.5433C619.698 82.9974 621.508 83.1162 623.254 82.8847C625 82.6532 626.603 82.0818 627.862 81.2426C629.121 80.4035 629.978 79.3344 630.325 78.1705C630.672 77.0067 630.494 75.8003 629.813 74.7039C629.132 73.6075 627.978 72.6705 626.498 72.0112C625.018 71.3519 623.278 71 621.498 71C618.982 71.0063 616.567 71.6608 614.758 72.8267L612.498 74.3333" stroke="#DC2626" stroke-width="2" stroke-linecap="round" stroke-linejoin="round"/>
<path d="M612.498 71V74.3333H617.498" stroke="#DC2626" stroke-width="2" stroke-linecap="round" stroke-linejoin="round"/>
<path d="M636.85 30.2109C638.117 30.2109 639.033 30.7327 639.598 31.7764C640.035 32.583 640.254 33.6882 640.254 35.0918C640.254 36.4225 640.056 37.5231 639.659 38.3936C639.085 39.6423 638.146 40.2666 636.843 40.2666C635.667 40.2666 634.792 39.7562 634.218 38.7354C633.739 37.8831 633.5 36.7393 633.5 35.3037C633.5 34.1917 633.644 33.237 633.931 32.4395C634.468 30.9538 635.441 30.2109 636.85 30.2109ZM636.836 39.1455C637.474 39.1455 637.982 38.863 638.36 38.2979C638.739 37.7327 638.928 36.68 638.928 35.1396C638.928 34.0277 638.791 33.1139 638.518 32.3984C638.244 31.6784 637.713 31.3184 636.925 31.3184C636.2 31.3184 635.669 31.6602 635.332 32.3438C634.999 33.0228 634.833 34.0254 634.833 35.3516C634.833 36.3496 634.94 37.1517 635.154 37.7578C635.482 38.6829 636.043 39.1455 636.836 39.1455ZM647.938 29.958H648.977L645.791 40H644.752L647.938 29.958ZM659.866 30.375V31.4482C659.552 31.7536 659.132 32.2845 658.608 33.041C658.089 33.7975 657.629 34.6133 657.228 35.4883C656.831 36.3405 656.53 37.1175 656.325 37.8193C656.193 38.2705 656.022 38.9974 655.812 40H654.452C654.762 38.1315 655.446 36.2721 656.503 34.4219C657.127 33.3372 657.784 32.4007 658.472 31.6123H653.058V30.375H659.866ZM662.067 37.5049C662.149 38.2067 662.475 38.6921 663.045 38.9609C663.337 39.0977 663.674 39.166 664.057 39.166C664.786 39.166 665.326 38.9336 665.677 38.4688C666.028 38.0039 666.203 37.4889 666.203 36.9238C666.203 36.2402 665.993 35.7116 665.574 35.3379C665.16 34.9642 664.66 34.7773 664.077 34.7773C663.653 34.7773 663.289 34.8594 662.983 35.0234C662.683 35.1875 662.425 35.4154 662.211 35.707L661.145 35.6455L661.89 30.375H666.976V31.5645H662.812L662.396 34.2852C662.623 34.112 662.84 33.9821 663.045 33.8955C663.41 33.7451 663.831 33.6699 664.31 33.6699C665.207 33.6699 665.968 33.9593 666.593 34.5381C667.217 35.1169 667.529 35.8506 667.529 36.7393C667.529 37.6644 667.242 38.4801 666.668 39.1865C666.098 39.8929 665.187 40.2461 663.934 40.2461C663.136 40.2461 662.43 40.0228 661.814 39.5762C661.204 39.125 660.862 38.4346 660.789 37.5049H662.067Z" fill="#4B5563"/>
<path d="M25.5 35C25.5 32.7909 27.2909 31 29.5 31H617.07C619.279 31 621.07 32.7909 621.07 35C621.07 37.2091 619.279 39 617.07 39H29.5C27.2909 39 25.5 37.2091 25.5 35Z" fill="#E5E7EB"/>
</svg>
